<svg xmlns="http://www.w3.org/2000/svg" viewBox="0 0 500 500"><g id="freepik--background-complete--inject-59"><path d="M62.21,282.61a29,29,0,1,1,39.42,11.29A29,29,0,0,1,62.21,282.61Z" style="fill:#ebebeb"></path><path d="M102.79,268.14c-1.9,9.68-10.56,17.48-10.56,17.48s-11.44-2.31-18-9.67c-5.47-6.15-5.34-14.44-.24-17.64,7.3-4.58,13.13,8.72,13.13,8.72S85.39,252.61,94,252.84C100,253,104.36,260.07,102.79,268.14Z" style="fill:#fff"></path><path d="M418.36,382.16a29,29,0,1,1,15.58-30.31A28.71,28.71,0,0,1,418.36,382.16Z" style="fill:#ebebeb"></path><path d="M414.36,353.74a8.82,8.82,0,1,1-8-9.55A8.82,8.82,0,0,1,414.36,353.74Z" style="fill:#fff"></path><path d="M418.67,378.53l-.31,3.63A29,29,0,0,1,388,379.53l.31-3.61a15.24,15.24,0,1,1,30.37,2.61Z" style="fill:#fff"></path><path d="M112.7,373h-3.43a3.86,3.86,0,0,1-3.89-3.89,3.9,3.9,0,0,1,3.89-3.89h4.78l2.24-13H112a3.89,3.89,0,0,1,0-7.77h5.69l1.48-8.88a3.81,3.81,0,0,1,3.88-3.22,4,4,0,0,1,3.89,4.57l-1.33,7.53h11.71l1.5-8.88a3.83,3.83,0,0,1,4-3.22,4,4,0,0,1,3.81,4.57l-1.28,7.53h3.45a3.89,3.89,0,0,1,0,7.77h-4.78l-2.24,13h4.25a3.85,3.85,0,0,1,3.88,3.89,3.9,3.9,0,0,1-3.88,3.89h-5.6l-1.57,9.17a3.85,3.85,0,0,1-3.89,3.21,3.94,3.94,0,0,1-3.88-4.54l1.42-7.84H120.69l-1.57,9.17a3.89,3.89,0,0,1-3.94,3.21,3.82,3.82,0,0,1-3.82-4.54Zm21-7.78,2.24-13H124.28l-2.24,13Z" style="fill:#ebebeb"></path><path d="M380.69,143.55a25.11,25.11,0,1,0-10.08,49.19,24.54,24.54,0,0,0,6.14.46,2,2,0,0,0,1.62-.68,2,2,0,0,0,.49-1.58,1.74,1.74,0,0,0-.44-1.35,2.29,2.29,0,0,0-1.78-.7,18.9,18.9,0,0,1-5.14-.5,20.66,20.66,0,1,1,24.37-16.14,19.51,19.51,0,0,1-4.13,8.78c-.33.51-2.29,2.45-4.27,2.54l-.49-.1c-.62-.13-.74-.36-.75-.38a5.33,5.33,0,0,1-.16-1.45c.21-2.49,2-9.95,2.07-10l.19-.91c1.5-7.35-2.95-14.5-9.94-15.93s-14,3.36-15.53,10.71,3,14.67,10,16.12a12.27,12.27,0,0,0,9.09-1.69l-.23,1.12a6.55,6.55,0,0,0,.45,3.84,5.26,5.26,0,0,0,3.89,2.94,5.52,5.52,0,0,0,1.54.16,11.72,11.72,0,0,0,7.43-3.88c.08-.08.13-.14.15-.14l.11-.11a25.26,25.26,0,0,0-14.63-40.29ZM373.83,177c-4.63-.95-7.44-5.61-6.41-10.62s5.54-8.24,10.08-7.31,7.48,5.82,6.48,10.7S378.41,178,373.83,177Z" style="fill:#ebebeb"></path></g><g id="freepik--paper-plane--inject-59"><path d="M133.83,346.93c-.05-.68-.07-1.36-.07-2h.75c0,.64,0,1.3.06,2Z" style="fill:#263238"></path><path d="M211.3,405h-.13v-.75h.14c1.27,0,2.56,0,3.85-.09l0,.75C213.9,405,212.59,405,211.3,405Zm-5.15-.16c-1.34-.08-2.69-.2-4-.35l.08-.75c1.31.15,2.65.27,4,.35Zm14.06-.32-.08-.75c1.31-.14,2.64-.31,4-.51l.12.74C222.87,404.22,221.53,404.4,220.21,404.54Zm-23.05-.74c-1.3-.22-2.63-.49-3.95-.78l.17-.73c1.3.29,2.62.55,3.91.77Zm32-.71-.16-.73c1.3-.28,2.6-.59,3.88-.93l.19.72C231.76,402.5,230.45,402.81,229.14,403.09Zm-40.8-1.32c-1.28-.36-2.57-.77-3.84-1.2l.24-.71c1.26.43,2.54.83,3.81,1.19Zm49.53-1-.23-.71c1.24-.4,2.51-.85,3.77-1.31l.26.7C240.4,399.88,239.12,400.33,237.87,400.73Zm-58.08-1.91c-1.23-.5-2.48-1-3.69-1.6l.31-.68c1.21.55,2.44,1.09,3.66,1.58Zm66.54-1.29-.3-.69c1.22-.53,2.43-1.1,3.6-1.69l.34.67C248.78,396.42,247.56,397,246.33,397.53ZM171.59,395c-1.18-.63-2.36-1.3-3.5-2l.38-.65c1.13.67,2.3,1.33,3.48,2Zm82.77-1.59-.39-.65c1.14-.68,2.26-1.4,3.36-2.15l.42.62C256.65,392,255.5,392.7,254.36,393.39Zm-90.52-3.07c-1.12-.75-2.22-1.54-3.29-2.33l.45-.6c1.06.79,2.15,1.56,3.26,2.31Zm98-2.09-.46-.59c1-.82,2.06-1.68,3.05-2.55l.5.56C263.88,386.53,262.84,387.4,261.79,388.23Zm-105.18-3.36c-1-.86-2.05-1.76-3-2.66l.51-.55c1,.89,2,1.78,3,2.64Zm111.94-2.65-.53-.53c.92-.91,1.85-1.88,2.77-2.87l.55.51C270.42,380.33,269.48,381.3,268.55,382.22ZM150,378.68c-.92-1-1.83-2-2.7-3l.57-.48c.86,1,1.76,2,2.68,3Zm124.64-3.13-.57-.48c.84-1,1.68-2.06,2.49-3.12l.6.46C276.33,373.48,275.49,374.53,274.64,375.55Zm-130.48-3.78c-.81-1.09-1.59-2.2-2.31-3.31l.62-.41c.72,1.1,1.49,2.2,2.29,3.27Zm136-3.39-.61-.43c.76-1.08,1.52-2.18,2.27-3.29l.62.42Q281.31,366.76,280.15,368.38Zm-140.89-4.24c-.65-1.2-1.26-2.41-1.8-3.61l.69-.31c.53,1.18,1.12,2.38,1.77,3.56Zm145.9-3.27-.64-.4c.71-1.13,1.4-2.26,2.09-3.41l.65.38C286.57,358.6,285.87,359.74,285.16,360.87Zm-149.53-5a39.89,39.89,0,0,1-1.07-3.9l.73-.16c.28,1.25.63,2.54,1.05,3.82Zm154.16-2.72-.65-.37c.65-1.15,1.31-2.32,1.95-3.49l.66.36C291.1,350.79,290.45,352,289.79,353.11Zm4.35-7.91-.67-.35c.63-1.17,1.25-2.36,1.87-3.54l.66.34C295.38,342.84,294.76,344,294.14,345.2Zm4.16-8-.67-.34c.6-1.18,1.21-2.37,1.81-3.57l.67.34Zm4.05-8.05-.67-.34,1.79-3.58.68.33Zm4-8.07-.67-.33c.59-1.19,1.2-2.39,1.8-3.58l.67.34Q307.27,319.28,306.39,321.07Zm4.08-8-.67-.35,1.84-3.56.67.35C311.69,310.67,311.07,311.85,310.47,313Zm4.18-8-.66-.36c.63-1.17,1.27-2.34,1.91-3.51l.66.36C315.92,302.72,315.28,303.89,314.65,305.06ZM319,297.2l-.65-.37c.66-1.15,1.32-2.31,2-3.46l.65.38C320.32,294.9,319.66,296.05,319,297.2Zm4.57-7.72-.64-.39q1.05-1.71,2.13-3.39l.63.4C325,287.22,324.27,288.35,323.57,289.48Zm4.85-7.55-.62-.41c.74-1.11,1.5-2.22,2.27-3.31l.61.43C329.92,279.73,329.16,280.83,328.42,281.93Zm5.19-7.34-.6-.45c.79-1.07,1.61-2.14,2.43-3.19l.59.46C335.21,272.46,334.4,273.52,333.61,274.59Zm5.55-7.07-.57-.48c.85-1,1.72-2,2.6-3.05l.57.5C340.88,265.49,340,266.5,339.16,267.52Zm5.95-6.73-.55-.51c.92-1,1.85-1.94,2.79-2.89l.53.53C346.94,258.87,346,259.82,345.11,260.79Zm6.36-6.34-.51-.55q1.46-1.36,3-2.7l.5.57C353.42,252.65,352.44,253.54,351.47,254.45Zm6.76-5.9-.47-.59c1-.84,2.11-1.68,3.16-2.48l.45.6C360.33,246.87,359.27,247.7,358.23,248.55Zm7.17-5.41-.43-.62c1.08-.76,2.2-1.52,3.32-2.25l.41.63C367.59,241.63,366.48,242.38,365.4,243.14Zm7.53-4.89-.39-.64c1.15-.69,2.32-1.36,3.48-2l.37.66C375.23,236.9,374.07,237.57,372.93,238.25Z" style="fill:#263238"></path><path d="M381,233.81l-.33-.67,1.79-.89.33.68Z" style="fill:#263238"></path><polygon points="371.65 226.89 366.17 241.94 377.67 232.95 421.65 217 371.65 226.89" style="fill:#FFA3A3"></polygon><polygon points="371.65 226.89 366.17 241.94 377.67 232.95 421.65 217 371.65 226.89" style="fill:#17153e;opacity:0.1"></polygon><polygon points="379.14 236.46 366.17 241.94 377.67 232.95 379.14 236.46" style="fill:#263238"></polygon><polygon points="377.67 232.95 421.65 217 385.57 252.21 377.67 232.95" style="fill:#FFA3A3"></polygon><polygon points="371.65 226.89 353.37 215.09 421.65 217 371.65 226.89" style="fill:#FFA3A3"></polygon></g><g id="freepik--Character--inject-59"><path d="M256,325.92c-.72,1.23-73.47,14.69-77.1,14.17a2.12,2.12,0,0,1-.51-.13c-4.59-1.42-27.1-17-28.81-18.31-4.22-3.27,7.36-32.06,11.62-37.15,2.83-3.38,8.68-5.37,8.68-5.37s10.15-51.28,19.18-63c2.26-2.93,47.52-10.25,56.15-7.68,3.69,1.1,13.34,8.55,13.78,10.07v0C259.49,220.78,256.68,324.68,256,325.92Z" style="fill:#37474f"></path><path d="M256,325.92c-.72,1.23-73.47,14.69-77.1,14.17a2.12,2.12,0,0,1-.51-.13c4.38-19.94,25-113.53,25.84-114.23s44.27-6.48,54.76-7.17C259.49,220.78,256.68,324.68,256,325.92Z" style="fill:#263238"></path><path d="M213.33,216.45c-.83-.59-2.7-10.47-1.63-12.64,1.2-2.43,18.76-3.75,20.05-2s3.17,11.62,2.69,12.05-3.33,1.18-3.81.6-1.6-8.81-2-9.2-12.67.51-13,1.2,1.85,8.85,1.41,9.28S214.14,217,213.33,216.45Z" style="fill:#37474f"></path><path d="M246.09,229.26c12.67,28.28,43.3,75.29,57,63.65,20.5-17.4,34.36-55.9,39.85-71.47,3.09-8.72-41.34-23.32-44.06-15.4-3.87,11.26-9.94,34.77-13.46,38.1-1.86,1.75-16.39-18.68-27.41-28.37C242.13,201.81,242,220.23,246.09,229.26Z" style="fill: rgb(221, 106, 87);"></path><path d="M354.06,208.33c-4,8.9-19.18,23.94-24.24,26.16s-31.78-22-31.22-27.59,16.5-35.44,25.33-40S358.16,199.11,354.06,208.33Z" style="fill: rgb(221, 106, 87);"></path><path d="M300.69,200.64s.64-12.65-2.56-23.35c-2.68-9-7.68-22-2.9-23.67,9.82-3.34,22.28,29.22,22.28,29.22s3.19,15.25-6.24,19.41C305.35,204.87,300.69,200.64,300.69,200.64Z" style="fill: rgb(221, 106, 87);"></path><path d="M311.76,176.64c.65,5.12,6.31,1.43,6.31,1.43s-6.87,7.28-4.17,12.3c2.63,4.84,9.31.13,9.8-.2-.36.39-6.5,7.25-3.26,12,3.37,4.95,9.27-.92,9.65-1.3-.23.47-3.1,6.78.19,9.85,5.65,5.25,13.43-10.68,19.42-12.46,0,0,4.18,9.8,4.36,10.06,0,0,7.71-15,4.86-23a5.38,5.38,0,0,0-5.7-3.61s3-4.57.58-8.4c-1.25-2-5.51-1.7-5.51-1.7s2.27-3.76-.11-7c-1.89-2.62-5.86-2-5.86-2s.5-4.61-2.3-6.66C334.39,151.87,310.39,165.68,311.76,176.64Z" style="fill: rgb(221, 106, 87);"></path><path d="M341.67,162.69c.08,0,.05-.16-.05-.13-9,2.61-18.09,8.24-23.88,15.68-.19.24.13.66.39.43C325.56,172.14,332.68,166.94,341.67,162.69Z" style="fill:#263238"></path><path d="M348.38,171.55c.1-.05,0-.21-.08-.18-9.26,2.75-19.33,9.37-25,18.73-.2.32-.05.8.2.45C327.75,184.61,340.27,175.33,348.38,171.55Z" style="fill:#263238"></path><path d="M329.92,201.67c5.78-8.77,13.79-14.8,22.9-19.81.12-.07,0-.23-.1-.2-5.12,1.24-10.6,5-14.61,8.36a27.6,27.6,0,0,0-8.5,11.45C329.54,201.65,329.8,201.86,329.92,201.67Z" style="fill:#263238"></path><path d="M317.89,178.06c-.22.3.46.31.24.61-.92,1.26-5.8,9.34-3.56,11.85,1.79,2,5.74,1,7.11,0l3.43-2.48-2.36,3.52a17.37,17.37,0,0,0-2.37,5.09,6.15,6.15,0,0,0,.46,5,3.54,3.54,0,0,0,4.16,1.6,10.72,10.72,0,0,0,4.46-3l3.47-3.62-2.08,4.53a16.15,16.15,0,0,0-1.25,4,6.66,6.66,0,0,0,.3,3.86,3.16,3.16,0,0,0,2.76,1.9,7,7,0,0,0,3.66-1.47,55.84,55.84,0,0,0,6.47-5.8c1-1,2.11-2.06,3.21-3a10.4,10.4,0,0,1,3.7-2.38,11.35,11.35,0,0,0-3.42,2.67c-1,1.06-2,2.16-2.95,3.26a47.87,47.87,0,0,1-6.3,6.27,8.26,8.26,0,0,1-4.33,1.91,4.53,4.53,0,0,1-4.19-2.65A8.19,8.19,0,0,1,328,205a18.21,18.21,0,0,1,1.32-4.43l1.39.91a12.33,12.33,0,0,1-5.24,3.57,5.19,5.19,0,0,1-3.47-.13,5.76,5.76,0,0,1-2.59-2.25,7.77,7.77,0,0,1-.59-6.38,18.91,18.91,0,0,1,2.69-5.55l1.07,1c-1.77,1.2-6.06,2.82-9.24.05C309.74,187.55,316.55,179.46,317.89,178.06Z" style="fill:#263238"></path><path d="M318.07,178.07a10.15,10.15,0,0,1-3.08.72,2.38,2.38,0,0,1-2.21-1,4.89,4.89,0,0,1-.51-2.72c.06-1,.17-2.13.33-3.25a8.27,8.27,0,0,0-1.44,3.09,4.83,4.83,0,0,0,.41,3.68,3.52,3.52,0,0,0,1.62,1.26,3.71,3.71,0,0,0,1.95.07A5.62,5.62,0,0,0,318.07,178.07Z" style="fill:#263238"></path><path d="M296.19,206.9l46.24,32.2s-27.62,57.23-44.69,57.07-41.73-43-50.27-61.54-3.42-34.23,13.78-17.33,23.36,23.83,23.92,23.6C286.25,240.46,296.19,206.9,296.19,206.9Z" style="fill:#FFA3A3"></path><path d="M342.43,239.1S323.28,278.79,307,292c-3.26,2.65-6.41,4.23-9.27,4.2-17.07-.15-41.73-43-50.27-61.54-5.29-11.47-5.34-21.86-.53-24.09,3-1.38,7.76.32,14.31,6.76,17.3,17,23.36,23.83,23.92,23.6,1.08-.44,11-34,11-34Z" style="fill:#FFA3A3"></path><path d="M331.49,243.25c-1.22-1-2.45-2-3.69-3l-7.56-5.94c-5-3.93-10.15-7.7-15.32-11.42-2.94-2.12-5.82-4.34-8.84-6.33a.14.14,0,0,0-.17.22c2.4,2.12,5,4.06,7.47,6.07s5,4,7.5,6q7.55,5.87,15.26,11.5c1.44,1.06,2.85,2.18,4.34,3.17.76.51,1.48,1.07,2.25,1.57s1.58.94,2.34,1.47a.08.08,0,0,0,.1-.13C333.92,245.42,332.75,244.29,331.49,243.25Z" style="fill:#263238"></path><path d="M285.56,239.86a117,117,0,0,0-4.34,14.59c-.6,2.45-1.08,4.92-1.55,7.39a58,58,0,0,0-1,7.42c0,.09.13.1.16,0,.76-2.38,1.32-4.86,1.88-7.3s1.16-4.89,1.71-7.35c1.11-4.91,2.4-9.78,3.36-14.72A.12.12,0,0,0,285.56,239.86Z" style="fill:#263238"></path><path d="M307,292c-3.26,2.65-6.41,4.23-9.27,4.2-17.07-.15-41.73-43-50.27-61.54-5.29-11.47-5.34-21.86-.53-24.09Z" style="opacity:0.1"></path><path d="M175.28,345.29l116,0c-.77-5.42-24-114-33.88-130.55-4.69-7.87-23.94-13.05-36.87-.56C195.83,238.07,174.34,344.22,175.28,345.29Z" style="fill:#FFA3A3"></path><path d="M276.87,277.57c-.3-1.49-.62-3-1-4.45-.67-2.91-1.4-5.8-2.17-8.69-1.09-4.06-2.26-8.12-3.48-12.16-.06-.64-.18-1.29-.27-1.93-.12-.87-.23-1.74-.37-2.61-.27-1.75-.56-3.5-.82-5.25a.08.08,0,1,0-.16,0,50.48,50.48,0,0,0,.41,5.36c0,.29.08.58.13.87-.15-.48-.29-1-.44-1.46-.51-1.6-1.08-3.18-1.61-4.77s-1-3.29-1.67-4.88a.07.07,0,0,0-.14.05c.32,1.48.78,2.92,1.17,4.38s.74,2.85,1.1,4.28c.74,2.89,1.59,5.76,2.36,8.64,1.55,5.76,3,11.56,4.62,17.3.44,1.57.88,3.14,1.34,4.71s.91,3.32,1.54,4.91c0,.08.17.07.16,0A41.15,41.15,0,0,0,276.87,277.57Z" style="fill:#263238"></path><path d="M257.3,218.76a9.89,9.89,0,0,1-3.88,5.52c-2.1,1.3-4.74,1.28-7.09,1-5-.51-9.66-2.86-13.77-5.85-1.17-.86-2.3-1.78-3.42-2.71a33.08,33.08,0,0,1-3.14-2.9c-.07-.07-.17,0-.1.11.95,1,1.84,2.1,2.8,3.12a33.56,33.56,0,0,0,3,2.77,31,31,0,0,0,6.8,4.33,24.38,24.38,0,0,0,7.58,2.13c2.48.27,5.28.22,7.45-1.23a10.07,10.07,0,0,0,4-6.29A.07.07,0,1,0,257.3,218.76Z" style="fill:#263238"></path><path d="M249.48,220.33c-4.47,1.22-16.58-2.73-21-10.05-.3-.5.27-5.94.66-12.58.21-4,.36-8.53.2-12.64,0-.84,26,5.25,26,5.25s-2.19,8.72-1.87,15.88a9.69,9.69,0,0,0,.25,1.68c0,.08,0,.17,0,.28C254.46,211.33,254.91,218.86,249.48,220.33Z" style="fill: rgb(221, 106, 87);"></path><path d="M253.77,207.87a1.86,1.86,0,0,0,0,.28,17.61,17.61,0,0,1-2.65.24c-14.35.25-19.7-17.29-21.12-23.39,4,.33,24.51,5.12,25.31,5.3h0s-2.19,8.71-1.87,15.88A9.84,9.84,0,0,0,253.77,207.87Z" style="fill:#263238"></path><path d="M238.42,203.71s0,0,0,0" style="fill:none;stroke:#fcaba0;stroke-linecap:round;stroke-linejoin:round;stroke-width:0px"></path><path d="M226,155.35c-2.85,9.13,1.84,35.58,8.31,41.5,9.38,8.6,24.82,9.5,32.14-1.8,7.09-11,.38-45.31-6.86-50.7C248.93,136.4,230.19,141.86,226,155.35Z" style="fill: rgb(221, 106, 87);"></path><path d="M252.53,171.54c0-.06-.13.11-.11.18.36,1.78.48,3.87-1,4.74,0,0,0,.11,0,.09C253.34,175.94,253.16,173.16,252.53,171.54Z" style="fill:#263238"></path><path d="M250.61,170c-2.9.28-2.14,6.07.56,5.81S253.05,169.72,250.61,170Z" style="fill:#263238"></path><path d="M262.1,170.23c0-.07.16.06.16.14.18,1.8.69,3.83,2.39,4.21.06,0,.06.11,0,.1C262.64,174.67,262,172,262.1,170.23Z" style="fill:#263238"></path><path d="M263.46,168.14c2.85-.6,3.84,5.16,1.2,5.71S261.07,168.65,263.46,168.14Z" style="fill:#263238"></path><path d="M248,167.61c.76-.31,1.41-.71,2.14-1.09a3.88,3.88,0,0,0,2-1.52,1.25,1.25,0,0,0-.4-1.46,3.08,3.08,0,0,0-3.1.09,4.53,4.53,0,0,0-2.31,2.27A1.32,1.32,0,0,0,248,167.61Z" style="fill:#263238"></path><path d="M265.31,164.93a21.18,21.18,0,0,1-2.38-.29,3.9,3.9,0,0,1-2.37-.76,1.25,1.25,0,0,1-.12-1.51,3.06,3.06,0,0,1,2.94-1,4.53,4.53,0,0,1,2.95,1.35A1.32,1.32,0,0,1,265.31,164.93Z" style="fill:#263238"></path><path d="M252.22,188.17c.49.37,1,.89,1.65.86a4.74,4.74,0,0,0,1.87-.71.06.06,0,0,1,.09.08,2.45,2.45,0,0,1-2.15,1.28,2,2,0,0,1-1.62-1.4C252,188.18,252.15,188.12,252.22,188.17Z" style="fill:#263238"></path><path d="M259.14,184a7.35,7.35,0,0,1-2.61,2.63,3.25,3.25,0,0,1-2,.39c-1.48-.19-1.69-1.5-1.58-2.66a7.77,7.77,0,0,1,.42-1.81A9.42,9.42,0,0,0,259.14,184Z" style="fill:#fff"></path><path d="M253.4,182.55a6.15,6.15,0,0,0,4.44,2.18,7.52,7.52,0,0,0,2.21-.19,1.89,1.89,0,0,0,.41-.1l.38-.11a.45.45,0,0,0,.31-.45v0a1.49,1.49,0,0,0,0-.18h0l0-.16c-.14-1.38-.55-3.47-.55-3.47.53.19,3.26,1,3.12.29-1.14-5.92-2.42-12.51-4.81-18.17a.17.17,0,0,0-.32.09c.88,5.74,2.75,11.29,3.73,17a10.63,10.63,0,0,0-3-.5c-.19.08.87,4,.88,4.64v.07c-2.28.6-4.13.13-6.58-1.13C253.4,182.29,253.27,182.43,253.4,182.55Z" style="fill:#263238"></path><path d="M230.05,176.56c5.17,0,4.13-22,4.13-22s5.28,2.48,9.62,2.79a45.54,45.54,0,0,0,10.15-.52c.72-.2-8.28-3.72-8.28-3.72s11.89.72,15.2-1.24,3-2.8,2.79-4-8.74-11.08-24.1-8.23A18,18,0,0,0,226,149.94s-4.53,7.81-4.27,11.43C222.12,166.23,224.56,176.56,230.05,176.56Z" style="fill:#263238"></path><path d="M232.56,177.22s-6.1-8.46-9.95-6.27.83,14.5,5.41,16.13a4.62,4.62,0,0,0,6.16-2.58Z" style="fill: rgb(221, 106, 87);"></path><path d="M224,174.45c-.07,0-.09.09,0,.12,3.21,1.24,4.93,4.18,6.15,7.23-1-1.17-2.27-1.8-3.83-.64-.08.06,0,.19.09.17a2.85,2.85,0,0,1,3.15.94,14.35,14.35,0,0,1,1.53,2.52c.16.28.67.12.56-.21l0-.07C231.66,180.44,228.42,174.79,224,174.45Z" style="fill:#263238"></path><path d="M249.74,139a36.81,36.81,0,0,0-10.47-2.59c-4-.32-16.6,1.25-19.5,3.92s-3.14,14.6-3.14,16.34,1.27,12.22,5.2,14.57,3.44-15.51,9.17-21.72S249.74,139,249.74,139Z" style="fill:#FFA3A3"></path><path d="M249.74,139s-13,4.32-18.73,10.53-5.26,24.07-9.19,21.72c-1.73-1-2.62-2.66-3.44-5.42.55-5.26,2.28-13.45,6.36-19.26,3.83-5.45,10.71-8.44,18.17-9.64A42.79,42.79,0,0,1,249.74,139Z" style="opacity:0.1"></path><path d="M223.37,181.77c.11-4.78,4.35-17.74,9.08-25.28S251.9,144,254,144c5.08.05,6.87,1.5,7.65,1s-4.61-4-6.08-4.84-5.39-2.62-7.59-2.46-15.71,2.15-20.37,8.17-10.88,22.58-9.4,26.67c.35,1,1.71,1.56,2.2,2.95.64,1.83,1.13,4,1.75,5.23C222.65,181.76,223.36,182.18,223.37,181.77Z" style="fill:#FFA3A3"></path><path d="M233.46,153.15a23.34,23.34,0,0,1-3.4-2.26,17.11,17.11,0,0,1-3-2.87c-.06-.08-.19,0-.13.08a13.3,13.3,0,0,0,2.72,3.26,11.27,11.27,0,0,0,3.68,2C233.51,153.45,233.59,153.23,233.46,153.15Z" style="fill:#263238"></path><path d="M223.1,177c-.15-.34-.39-.63-.57-1a5.89,5.89,0,0,1-.5-1.15,10.69,10.69,0,0,0-.65-2.29,8.38,8.38,0,0,0-1.19-1.53,3.2,3.2,0,0,1-1-1.89c0-.1-.16-.09-.16,0,.07,1.44,1.09,2.42,1.77,3.6a15,15,0,0,1,.77,2.44,3.71,3.71,0,0,0,1.35,1.93C223,177.24,223.15,177.13,223.1,177Z" style="fill:#263238"></path><path d="M224.5,171.8c-.48-.53-1-1-1.42-1.56a14.07,14.07,0,0,1-1.1-1.73c-.33-.59-.61-1.2-.93-1.8s-.83-1.37-1.17-2.09c0-.09-.18,0-.14.09.35.74.58,1.55.9,2.31a18,18,0,0,0,1,1.9,10.37,10.37,0,0,0,1.21,1.66,5.08,5.08,0,0,0,1.59,1.29C224.49,171.89,224.53,171.83,224.5,171.8Z" style="fill:#263238"></path><path d="M226,167.06a13.67,13.67,0,0,1-2.73-2.8c-.74-1-1.43-2.13-2.09-3.21-.05-.08-.18,0-.15.06a16.2,16.2,0,0,0,1.81,3.54,8.41,8.41,0,0,0,1.29,1.44,8.77,8.77,0,0,0,1.77,1.11C226,167.24,226.08,167.12,226,167.06Z" style="fill:#263238"></path><path d="M227.68,162.52a4.76,4.76,0,0,1-1.32-1.21c-.44-.52-.86-1-1.27-1.58s-.8-1-1.19-1.54a4.74,4.74,0,0,1-.94-1.7.08.08,0,0,0-.15,0,4.85,4.85,0,0,0,.63,1.84,12.41,12.41,0,0,0,1.17,1.81,17.61,17.61,0,0,0,1.41,1.59,3.08,3.08,0,0,0,1.58,1C227.72,162.74,227.8,162.58,227.68,162.52Z" style="fill:#263238"></path><path d="M228.77,156.81c-.46-.41-.92-.83-1.34-1.27s-.84-.92-1.23-1.39-.85-1-1.23-1.5a.08.08,0,0,0-.14.09,12.14,12.14,0,0,0,1,1.68A12.46,12.46,0,0,0,227,155.9a15.5,15.5,0,0,0,1.38,1.31,4.78,4.78,0,0,0,1.59,1,.12.12,0,0,0,.13-.17A9.29,9.29,0,0,0,228.77,156.81Z" style="fill:#263238"></path><path d="M237,150.28a19.66,19.66,0,0,0-1.53-1.63,18.93,18.93,0,0,0-1.76-1.46,19.75,19.75,0,0,0-3.81-2.31c-.08,0-.17.06-.09.12,2.34,1.82,4.76,3.55,7.08,5.39C237,150.45,237.05,150.35,237,150.28Z" style="fill:#263238"></path><path d="M239.67,146.07a9.8,9.8,0,0,0-1.69-1.46,20.86,20.86,0,0,0-4.18-2.07.08.08,0,0,0-.08.14c1.27.76,2.56,1.5,3.79,2.33a20.59,20.59,0,0,1,1.76,1.31c.56.48,1,1.07,1.54,1.57,0,0,.12,0,.1-.06A5.57,5.57,0,0,0,239.67,146.07Z" style="fill:#263238"></path><path d="M243.54,144a9.79,9.79,0,0,0-1.56-1.46,12.1,12.1,0,0,0-3.57-1.88c-.09,0-.14.1-.06.15a23.82,23.82,0,0,1,3.39,2.22c.53.42,1,.87,1.56,1.3s1,1,1.51,1.39a.05.05,0,0,0,.07-.08A10.55,10.55,0,0,0,243.54,144Z" style="fill:#263238"></path><path d="M246.29,141.51c-.52-.38-1-.74-1.59-1.09a5.89,5.89,0,0,0-1.7-.85c-.09,0-.13.1-.06.14,1,.73,2,1.48,3,2.23a16.48,16.48,0,0,1,2.35,2.52s.11,0,.09-.05A6,6,0,0,0,246.29,141.51Z" style="fill:#263238"></path><path d="M249.83,140.57a9.74,9.74,0,0,0-3.27-1.82c-.09,0-.14.11-.06.14a11.73,11.73,0,0,1,3,2,16.76,16.76,0,0,1,2.41,2.71c0,.05.13,0,.1,0A8.17,8.17,0,0,0,249.83,140.57Z" style="fill:#263238"></path><path d="M254.6,142.48a5.13,5.13,0,0,0-.44-.7,7.82,7.82,0,0,0-1.12-1.25,17.08,17.08,0,0,0-2.8-1.95c-.08-.05-.16.09-.07.14a13.93,13.93,0,0,1,2.63,2,12.55,12.55,0,0,1,1.08,1.22c.16.21.31.43.45.65a4.16,4.16,0,0,0,.43.66.08.08,0,0,0,.13-.06A2,2,0,0,0,254.6,142.48Z" style="fill:#263238"></path><path d="M257.48,142.6a11.14,11.14,0,0,0-.92-1,10,10,0,0,0-1-.91c-.37-.28-.76-.56-1.12-.86-.08-.07-.18.06-.09.13a8.58,8.58,0,0,1,1.05.95l.94,1,.94,1a12.52,12.52,0,0,0,.94,1c.05.05.13,0,.1-.08A6.65,6.65,0,0,0,257.48,142.6Z" style="fill:#263238"></path><path d="M218.76,214.21c-2.23-.23,7.79-6.82,10.2-4.89s14.52,31.86,10.58,64.34-62.27,70.39-64.64,65.53c-1-2-.31-6.9,1.26-8.72,2.22-2.57,43.15-34.5,47.76-54.64C228,257.92,224.24,214.77,218.76,214.21Z" style="fill:#455a64"></path><path d="M198.44,231.23c-36.91,38.89-70.25,105.61-50.13,109.08,17.39,3,72-12.85,85.45-18.57,5.88-2.49-9.48-52-15.59-48.92-5.29,2.63-12.23,5.52-13.06,5.46-1.77-.12,5.56-23.91,12-44.18C226.54,204.15,212.3,216.63,198.44,231.23Z" style="fill: rgb(221, 106, 87);"></path><path d="M273.86,254.18c3.61,3.87.92,8.64.92,8.64a11.29,11.29,0,0,1,6.29,4.39c2.5,3.92-2.56,9.55-2.56,9.55a14,14,0,0,1,5.9,5.7c2,4-2.28,10.4-2.28,10.4a12.14,12.14,0,0,1,2,8.27c-1.21,7.74-12.22,12.43-19.18,15.49s-29.59,5.19-33.86,6l-20-44.55s27.34-22.59,36-25C254.5,251.05,269.81,249.84,273.86,254.18Z" style="fill: rgb(221, 106, 87);"></path><path d="M274.15,262.24c-8.31.3-16.09,3.05-24,5.35a.14.14,0,0,0,.08.27c7.85-2.38,16.06-3.17,24-5.23A.2.2,0,0,0,274.15,262.24Z" style="fill:#263238"></path><path d="M278.11,276.24a21.52,21.52,0,0,0-5.48,1.49c-1.9.65-3.78,1.34-5.66,2.06q-5.64,2.16-11.17,4.6c-.16.07-.09.34.09.27,3.75-1.42,7.52-2.8,11.32-4.07q2.85-.94,5.73-1.86a25.81,25.81,0,0,0,5.33-2A.29.29,0,0,0,278.11,276.24Z" style="fill:#263238"></path><path d="M282,292.91c-1.63,0-3.36,1-4.86,1.6-1.69.69-3.4,1.38-5.1,2.05-3.42,1.34-6.83,2.69-10.29,3.91-.17.06-.09.34.09.27,3.52-1.22,7.05-2.4,10.56-3.66l5.16-1.88c1.45-.54,3.34-1.05,4.52-2.12A.11.11,0,0,0,282,292.91Z" style="fill:#263238"></path><path d="M217.25,270.52,234,325.75s-76.55,24-89.31,14.76S159,267.59,208.34,221c17.3-16.35,14.42,2.59,8.58,21.49-6.76,21.89-9.25,33.74-9.25,33.74Z" style="fill:#FFA3A3"></path><path d="M217.17,270.51c-1.75.76-22.94,13.12-24.42,14.09a8.2,8.2,0,0,0-2.21.58c-.85.29-1.7.57-2.54.88-1.62.61-3.24,1.21-4.84,1.85a69.93,69.93,0,0,1-9.76,3.56c-.18,0-.09.31.09.27A90.17,90.17,0,0,0,183.67,289c1.68-.53,3.35-1.1,5-1.68l-1.76,1.16c-6.88,4.56-13.65,9.3-20.49,13.92-3.89,2.63-7.76,5.3-11.69,7.87a.14.14,0,0,0,.15.24c13.81-9,61-37.84,62.63-39.38C217.76,270.86,217.49,270.38,217.17,270.51Z" style="fill:#263238"></path><path d="M218.6,254.82c-1.25,1.59-2.73,3-4,4.53-.07.09-.14.17-.2.26,1.78-4.8,3.43-9.64,5.07-14.48a.08.08,0,0,0-.14-.06c-2.62,5.93-5.27,11.85-7.6,17.9-1.18,3-5.33,13.85-5.09,14.25.14.23.37.33.55.1,0-.06,3.52-8.23,3.75-8.8q1.1-2.75,2.16-5.5l.09-.17c.26-.36.56-.68.83-1,.56-.72,1.09-1.45,1.64-2.18,1.12-1.49,2-3.14,3.13-4.62C218.91,254.88,218.71,254.68,218.6,254.82Z" style="fill:#263238"></path><path d="M234.43,325.91a6.25,6.25,0,0,0-.26-.87c-.11-.33-.23-.66-.35-1a6.71,6.71,0,0,1-.31-1c-.07-.34-.15-.69-.22-1,0-.18-.32-.1-.27.08.08.33.17.65.26,1a7.14,7.14,0,0,1,.17,1c0,.33.08.66.14,1,0,.15,0,.31.07.46s.05.3.09.44c-3.62.79-7.2,2-10.79,2.91s-7.46,2-11.2,2.93c-7.55,1.92-15.1,3.87-22.68,5.67-4.33,1-8.64,2.12-13,3-.18,0-.1.31.08.27,7.66-1.53,15.36-2.81,23-4.56s15.16-3.66,22.63-5.89c4.23-1.27,8.65-2.36,12.74-4A.19.19,0,0,0,234.43,325.91Z" style="fill:#263238"></path><path d="M223.17,321.09c-.39-1.54-.81-3.06-1.24-4.59-.85-3.09-1.72-6.17-2.6-9.26-1.75-6.13-3.66-12.2-5.65-18.25-1.13-3.44-2.14-6.94-3.41-10.32a.14.14,0,0,0-.27.08c.7,3.13,1.63,6.21,2.46,9.3s1.63,6.2,2.52,9.29c1.75,6.12,3.62,12.21,5.55,18.28.54,1.7,1,3.44,1.64,5.12.31.86.56,1.74.89,2.6s.72,1.69,1,2.56a.08.08,0,0,0,.15,0C223.85,324.27,223.57,322.67,223.17,321.09Z" style="fill:#263238"></path></g><g id="freepik--speech-bubbles--inject-59"><rect x="332.24" y="45.36" width="67.68" height="38.21" style="fill:#FFA3A3"></rect><polygon points="343.69 83.58 332.24 95.32 332.24 83.58 343.69 83.58" style="fill:#FFA3A3"></polygon><rect x="342.02" y="53.04" width="40.18" height="1.18" style="fill:#fff"></rect><rect x="342.02" y="56.65" width="27.54" height="1.18" style="fill:#fff"></rect><rect x="342.02" y="60.26" width="48.11" height="1.18" style="fill:#fff"></rect><rect x="342.02" y="63.88" width="16.55" height="1.18" style="fill:#fff"></rect><rect x="342.02" y="67.49" width="37.75" height="1.18" style="fill:#fff"></rect><rect x="342.02" y="71.11" width="40.18" height="1.18" style="fill:#fff"></rect><rect x="342.02" y="74.72" width="30.1" height="1.18" style="fill:#fff"></rect><rect x="345.59" y="95.62" width="67.68" height="27.96" transform="translate(758.86 219.2) rotate(180)" style="fill:#455a64"></rect><polygon points="401.82 123.58 413.27 135.32 413.27 123.58 401.82 123.58" style="fill:#455a64"></polygon><rect x="356.02" y="101.55" width="36.44" height="1.22" style="fill:#fff"></rect><rect x="356.02" y="105.27" width="46.38" height="1.22" style="fill:#fff"></rect><rect x="356.02" y="108.99" width="33.71" height="1.22" style="fill:#fff"></rect><rect x="356.02" y="112.71" width="42.4" height="1.22" style="fill:#fff"></rect><rect x="356.02" y="116.43" width="27.8" height="1.22" style="fill:#fff"></rect></g></svg>